# xmcd CD database file
#
# Track frame offsets:
#	150
#	11242
#	25465
#	37652
#	52070
#	67575
#	85392
#	104275
#	122927
#	144825
#	160182
#	171155
#
# Disc length: 2473 seconds
#
# Revision: 2
# Processed by: cddbd v1.4PL0 Copyright (c) Steve Scherf et al.
# Submitted via: CDex 1.51
#
DISCID=9709a70c
DTITLE=Brenda Kahn - Epiphany In Brooklyn
DYEAR=1992
DGENRE=Chanson
TTITLE0=I Don't Sleep, I Drink Coffee Instead
TTITLE1=Mojave Winters
TTITLE2=She's In Love
TTITLE3=Anesthesia
TTITLE4=Mint Juleps And Needles
TTITLE5=My Lover
TTITLE6=Sleepwalking
TTITLE7=Lost
TTITLE8=The Great Divide
TTITLE9=Madagascar
TTITLE10=Losing Time
TTITLE11=In Indiana
EXTD=YEAR: 1992
EXTT0=
EXTT1=
EXTT2=
EXTT3=
EXTT4=
EXTT5=
EXTT6=
EXTT7=
EXTT8=
EXTT9=
EXTT10=
EXTT11=
PLAYORDER=
